<?xml version="1.0" standalone="no"?>
<!DOCTYPE svg PUBLIC "-//W3C//DTD SVG 20010904//EN"
 "http://www.w3.org/TR/2001/REC-SVG-20010904/DTD/svg10.dtd">
<svg version="1.0" xmlns="http://www.w3.org/2000/svg"
 width="905.000000pt" height="905.000000pt" viewBox="0 0 905.000000 905.000000"
 preserveAspectRatio="xMidYMid meet">
<metadata>
Created by potrace 1.14, written by Peter Selinger 2001-2017
</metadata>
<g transform="translate(0.000000,905.000000) scale(0.100000,-0.100000)"
fill="#000000" stroke="none">
<path d="M5631 7838 c10 -7 2 -8 -23 -5 -20 3 -39 3 -41 0 -3 -3 -49 -5 -101
-5 -57 0 -96 -5 -96 -11 0 -5 -7 -4 -15 3 -10 9 -15 9 -15 1 0 -6 -3 -10 -7
-9 -5 0 -15 -2 -23 -5 -19 -7 -88 -19 -117 -19 -13 0 -23 -3 -23 -7 0 -4 -11
-8 -25 -9 -50 -4 -60 -6 -84 -18 -13 -7 -29 -10 -34 -7 -5 3 -13 -1 -18 -8 -7
-12 -9 -11 -9 1 0 11 -2 12 -8 3 -4 -7 -17 -14 -27 -16 -11 -1 -26 -6 -33 -10
-11 -7 -27 -12 -77 -21 -5 -1 -17 -6 -25 -11 -8 -5 -17 -10 -20 -11 -3 0 -18
-7 -35 -14 -16 -7 -34 -12 -38 -11 -5 1 -23 -6 -40 -15 -62 -32 -68 -35 -77
-29 -6 4 -10 2 -10 -4 0 -9 -38 -27 -51 -23 -4 1 -19 -10 -34 -24 -14 -13 -37
-25 -50 -26 -14 -1 -27 -8 -29 -14 -3 -7 -18 -15 -35 -19 -17 -3 -29 -10 -28
-13 1 -4 0 -7 -3 -8 -3 0 -16 -7 -30 -14 -14 -8 -28 -13 -32 -12 -5 1 -8 -2
-8 -7 0 -5 -9 -13 -21 -16 -22 -7 -47 -25 -86 -63 -14 -12 -28 -20 -33 -17 -5
3 -11 1 -15 -5 -4 -6 -11 -8 -16 -5 -5 4 -9 -1 -9 -9 0 -9 -7 -16 -16 -16 -8
0 -13 -4 -9 -9 6 -10 -33 -27 -50 -22 -5 1 -7 0 -3 -4 6 -6 -38 -57 -55 -62
-9 -4 -28 -20 -104 -93 -35 -33 -63 -58 -63 -56 0 1 -18 -14 -40 -34 -22 -20
-40 -42 -40 -48 0 -7 -4 -11 -8 -10 -4 2 -29 -18 -56 -44 -27 -27 -45 -48 -42
-48 3 0 -23 -29 -59 -65 -36 -35 -65 -69 -65 -75 0 -5 -6 -9 -12 -8 -7 2 -12
-3 -10 -9 1 -7 -5 -13 -13 -13 -8 0 -14 -3 -13 -7 2 -5 -1 -9 -6 -10 -4 -1
-19 -18 -32 -37 -22 -33 -34 -41 -56 -37 -4 0 -5 -6 -2 -14 3 -8 -1 -22 -10
-30 -9 -9 -16 -14 -16 -10 0 3 -6 0 -14 -7 -8 -7 -12 -16 -9 -20 2 -5 -3 -8
-11 -8 -9 0 -15 -3 -14 -7 2 -5 -8 -19 -22 -33 -14 -14 -28 -24 -32 -22 -5 1
-8 -5 -8 -14 0 -8 -4 -12 -10 -9 -5 3 -10 0 -10 -8 0 -19 -42 -57 -64 -57 -9
0 -15 -4 -12 -9 7 -10 -50 -71 -65 -71 -5 0 -9 -7 -9 -16 0 -8 -5 -12 -10 -9
-6 3 -13 -1 -16 -9 -3 -9 -9 -14 -13 -12 -4 3 -18 -8 -31 -25 -14 -16 -31 -29
-38 -29 -7 0 -15 -7 -18 -15 -4 -8 -11 -15 -16 -15 -6 0 -16 -7 -22 -16 -6 -8
-20 -16 -30 -18 -9 -1 -22 -9 -27 -17 -5 -8 -9 -10 -9 -4 0 5 -7 -1 -16 -13
-8 -12 -22 -22 -30 -22 -8 0 -14 -4 -14 -10 0 -5 -7 -10 -15 -10 -9 0 -18 -7
-21 -15 -4 -8 -10 -13 -14 -10 -5 3 -11 1 -15 -5 -4 -6 -11 -8 -16 -5 -5 4 -9
1 -9 -5 0 -7 -7 -10 -15 -7 -8 4 -17 1 -21 -5 -5 -7 -2 -8 6 -3 8 5 11 4 7 -2
-4 -6 -20 -16 -37 -23 -16 -7 -30 -16 -30 -21 0 -5 -6 -6 -13 -3 -7 2 -22 -4
-34 -15 -11 -11 -24 -17 -27 -14 -3 4 -6 1 -6 -6 0 -7 -5 -9 -10 -6 -6 3 -13
0 -16 -8 -3 -8 -16 -13 -30 -11 -13 1 -24 -2 -24 -6 0 -5 -9 -12 -20 -15 -11
-4 -17 -11 -14 -17 5 -7 1 -9 -10 -5 -10 4 -24 -1 -35 -12 -11 -11 -22 -17
-25 -14 -3 3 -18 -3 -33 -13 -15 -10 -33 -17 -39 -16 -6 1 -21 -9 -34 -23 -13
-14 -28 -25 -34 -25 -6 0 -4 5 4 10 11 7 11 10 2 10 -7 0 -17 -10 -22 -22 -5
-13 -9 -17 -9 -10 -1 10 -5 10 -24 0 -12 -7 -25 -11 -29 -10 -5 1 -8 -3 -8 -9
0 -5 -5 -7 -10 -4 -6 3 -10 1 -10 -5 0 -7 -9 -9 -22 -6 -13 3 -18 3 -11 0 10
-4 10 -8 0 -19 -7 -7 -16 -11 -21 -8 -4 3 -11 1 -15 -5 -4 -7 -16 -13 -26 -15
-11 -1 -26 -6 -32 -10 -8 -5 -13 -3 -13 4 0 15 -15 2 -15 -14 -1 -7 -6 -11
-13 -10 -7 2 -12 -2 -12 -8 0 -5 -5 -7 -10 -4 -6 3 -13 -1 -16 -9 -3 -9 -10
-14 -14 -11 -9 6 -62 -20 -55 -26 2 -3 -5 -6 -16 -6 -11 -1 -29 -11 -38 -22
-10 -11 -21 -18 -24 -15 -3 4 -22 -4 -41 -16 -20 -12 -36 -18 -36 -13 -1 4
-10 -3 -21 -16 -11 -13 -22 -21 -26 -18 -3 4 -11 0 -17 -9 -10 -13 -27 -20
-58 -23 -4 -1 -5 -7 -2 -14 3 -9 -4 -13 -25 -11 -17 1 -38 -5 -48 -13 -10 -8
-12 -12 -3 -7 8 3 2 -6 -15 -22 -18 -18 -33 -25 -37 -19 -7 10 -12 1 -9 -17 0
-5 -4 -9 -9 -9 -6 -1 -14 -3 -20 -4 -5 -1 -14 -3 -20 -4 -5 0 -10 -7 -10 -15
0 -14 -36 -32 -53 -28 -5 1 -6 -2 -2 -8 3 -5 0 -10 -8 -10 -8 0 -18 -7 -21
-16 -4 -9 -13 -14 -21 -10 -8 3 -15 1 -15 -4 0 -6 0 -12 0 -15 0 -9 -36 -41
-53 -48 -9 -3 -19 -2 -23 4 -6 11 -36 -8 -31 -20 7 -12 -100 -106 -117 -103
-11 2 -16 -3 -16 -17 0 -12 -4 -21 -9 -21 -14 0 -72 -60 -66 -70 3 -5 -5 -10
-17 -12 -15 -2 -24 -11 -26 -25 -2 -13 -8 -23 -13 -23 -5 0 -9 -6 -8 -12 3
-19 -11 -47 -37 -74 -13 -12 -24 -21 -24 -18 0 3 -11 -7 -25 -22 -29 -31 -28
-26 -15 -58 5 -14 6 -26 2 -26 -10 0 -8 -42 2 -58 4 -7 4 -12 -1 -12 -6 0 -8
-70 -4 -124 1 -4 8 -6 16 -2 12 4 15 -7 14 -67 -1 -40 -6 -78 -11 -84 -8 -10
-6 -13 5 -13 18 0 41 -35 33 -49 -9 -13 22 -34 39 -27 11 4 19 -3 25 -19 5
-14 14 -25 20 -25 6 0 8 -5 4 -11 -4 -7 -1 -10 7 -7 8 3 26 -3 41 -14 16 -11
37 -17 52 -14 18 3 27 -1 31 -15 5 -14 16 -19 46 -19 28 0 39 -4 39 -15 0 -11
10 -14 38 -13 22 0 44 -2 50 -6 6 -3 13 -2 17 4 4 7 13 5 26 -4 11 -7 28 -12
38 -9 22 6 53 -28 41 -46 -4 -8 -23 -15 -41 -16 -45 -4 -63 -8 -70 -18 -3 -5
-46 -10 -95 -13 -100 -4 -135 -10 -143 -22 -3 -5 -18 -8 -33 -7 -16 1 -28 -1
-28 -5 0 -3 -12 -5 -27 -5 -16 1 -33 -3 -40 -7 -6 -5 -27 -10 -47 -11 -20 -1
-36 -5 -36 -9 0 -5 -3 -7 -7 -6 -5 1 -18 -3 -29 -10 -12 -6 -24 -9 -27 -6 -8
8 -87 -15 -87 -26 0 -4 -8 -7 -17 -5 -10 1 -31 -5 -48 -13 -16 -9 -34 -15 -39
-14 -4 2 -14 -3 -22 -9 -8 -6 -14 -8 -14 -3 0 5 -4 3 -8 -4 -5 -7 -19 -15 -33
-17 -13 -3 -28 -11 -34 -18 -5 -8 -14 -15 -20 -17 -27 -7 -34 -13 -29 -21 3
-5 2 -9 -3 -8 -22 4 -33 -3 -47 -31 -9 -19 -10 -28 -3 -23 7 4 6 -1 -2 -11
-15 -17 -17 -125 -3 -136 4 -3 8 -12 10 -20 2 -8 11 -24 20 -34 9 -11 11 -16
5 -12 -9 5 -11 2 -7 -8 3 -9 9 -16 13 -16 3 0 19 -20 34 -45 16 -25 33 -45 39
-45 5 0 6 -4 3 -10 -3 -5 -2 -10 2 -10 5 0 23 -18 40 -41 17 -22 35 -40 40
-41 4 0 7 -4 5 -9 -1 -5 4 -9 11 -9 16 0 58 -46 50 -54 -4 -3 1 -6 10 -6 9 0
20 -6 24 -14 4 -8 13 -15 18 -17 24 -4 34 -12 29 -20 -3 -5 0 -9 5 -9 6 0 24
-13 39 -30 16 -16 34 -30 40 -30 6 0 14 -9 17 -20 3 -11 13 -20 21 -20 9 0 29
-13 46 -30 16 -16 35 -30 41 -30 7 0 21 -11 31 -25 10 -13 22 -22 27 -19 5 3
9 0 9 -5 0 -6 7 -11 15 -11 17 0 55 -35 55 -50 0 -5 5 -10 11 -10 5 0 7 5 3
11 -8 13 117 -71 128 -86 5 -6 8 -6 8 0 0 5 7 -1 16 -13 8 -12 19 -20 24 -17
4 3 10 2 12 -3 1 -4 33 -23 71 -42 37 -19 67 -38 67 -42 0 -4 7 -8 15 -8 8 0
15 -4 15 -10 0 -5 7 -10 15 -10 8 0 15 -4 15 -10 0 -5 9 -10 20 -10 28 0 71
-30 63 -43 -3 -6 -1 -7 5 -3 7 4 12 2 12 -3 0 -6 16 -11 35 -11 22 0 38 -6 44
-17 6 -10 11 -14 11 -10 0 5 13 -1 29 -12 16 -12 36 -21 45 -21 9 0 16 -5 16
-11 0 -5 5 -7 10 -4 6 3 10 1 10 -5 0 -7 6 -10 13 -7 7 3 19 -4 26 -15 10 -16
15 -17 27 -8 10 9 14 9 14 1 0 -6 9 -11 19 -11 11 0 21 -4 23 -10 2 -5 12 -11
23 -13 11 -2 29 -8 41 -15 11 -6 32 -13 46 -16 13 -2 46 -11 72 -20 26 -9 53
-16 61 -16 7 0 15 -5 17 -11 4 -11 47 -20 93 -20 11 0 28 -8 39 -17 14 -13 17
-13 11 -2 -5 9 0 8 13 -4 12 -11 22 -15 22 -10 0 5 6 2 13 -6 7 -8 18 -15 25
-16 39 -3 43 -5 36 -16 -5 -8 0 -9 15 -5 14 3 24 0 28 -9 3 -8 9 -11 14 -8 13
7 69 -28 69 -43 0 -7 4 -13 9 -13 5 0 18 -16 30 -35 l20 -35 -23 -25 c-13 -13
-26 -22 -29 -19 -3 3 -10 -3 -16 -14 -6 -11 -8 -22 -5 -25 8 -7 -62 -37 -86
-37 -10 0 -20 -7 -24 -15 -3 -8 -9 -14 -13 -13 -13 3 -53 -13 -53 -21 0 -4
-12 -7 -28 -6 -16 1 -35 -6 -46 -18 -15 -15 -20 -16 -27 -5 -7 11 -9 11 -9 -1
0 -7 -6 -11 -15 -7 -8 3 -15 2 -15 -3 0 -4 -12 -8 -28 -7 -15 1 -32 -6 -39
-14 -6 -8 -15 -15 -20 -16 -4 0 -16 -4 -25 -8 -9 -4 -22 -9 -30 -10 -41 -9
-68 -19 -68 -28 0 -5 -6 -8 -12 -5 -12 4 -78 -25 -107 -47 -7 -5 -20 -11 -29
-13 -9 -1 -18 -7 -20 -12 -2 -6 -10 -11 -17 -11 -7 0 -16 -7 -19 -16 -3 -8
-11 -12 -17 -8 -7 4 -9 3 -5 -4 3 -6 -2 -15 -11 -21 -10 -6 -15 -11 -10 -11 4
0 0 -12 -10 -26 -18 -28 -27 -110 -12 -119 4 -3 6 -11 3 -18 -2 -7 15 -33 38
-57 24 -24 42 -47 41 -52 -2 -4 3 -5 11 -2 7 3 20 -2 29 -10 8 -8 17 -12 21
-9 3 4 6 2 6 -4 0 -6 16 -13 36 -16 20 -3 45 -14 55 -23 19 -17 32 -20 122
-28 26 -3 52 -8 57 -11 6 -4 28 -8 50 -10 21 -2 43 -5 47 -8 5 -3 15 -2 23 3
9 5 20 4 28 -2 10 -9 16 -8 23 3 7 12 10 12 18 0 6 -9 10 -10 16 -2 5 9 10 9
20 1 9 -8 15 -8 20 0 4 6 12 7 24 1 9 -5 23 -6 30 -2 7 5 23 7 37 5 13 -1 24
2 24 7 0 6 5 7 10 4 6 -4 17 -2 25 5 9 8 15 8 20 0 3 -6 11 -8 16 -4 12 7 61
13 127 16 28 1 42 6 42 15 0 8 4 11 10 8 6 -3 10 -1 10 5 0 6 4 8 10 5 5 -3
10 -2 10 3 0 5 8 9 18 9 32 -2 112 14 112 22 0 5 20 12 44 15 24 4 49 13 55
20 6 7 22 12 36 10 14 -1 25 2 25 7 0 5 5 9 11 9 5 0 7 -6 4 -12 -4 -7 0 -5 8
4 8 10 23 19 33 21 10 1 25 6 32 10 6 5 12 5 12 0 0 -4 4 -3 8 4 4 6 21 14 37
17 17 2 31 5 33 6 1 2 10 3 20 4 10 0 30 9 45 19 15 10 32 15 36 12 5 -3 11 0
13 6 2 7 15 12 28 13 14 1 30 4 35 7 6 4 20 5 32 4 13 -1 23 5 26 15 3 11 13
16 28 15 13 -1 27 2 30 8 4 5 26 11 50 13 23 3 47 8 53 14 7 5 24 11 39 14 15
2 31 7 37 11 5 3 10 2 10 -4 0 -5 27 1 60 15 33 13 66 24 75 24 8 0 15 5 15
12 0 6 3 8 7 5 3 -4 13 -1 21 6 13 10 14 9 8 -2 -6 -10 -3 -9 15 2 13 8 46 18
73 22 64 8 70 9 76 15 14 14 69 27 78 18 6 -6 16 -3 26 8 10 9 38 18 64 20
112 9 130 11 141 18 6 4 11 3 11 -3 0 -16 29 -1 35 18 3 9 15 18 28 19 12 1
51 3 87 6 78 5 133 15 140 24 3 4 41 8 85 9 150 4 244 11 257 19 20 13 58 12
58 0 0 -7 3 -7 8 -1 4 6 69 11 152 12 170 3 222 7 238 17 7 4 12 3 12 -2 0 -5
21 -6 48 -2 26 5 50 6 55 3 4 -2 7 2 7 9 0 9 3 9 10 -2 5 -8 10 -10 10 -5 0 7
50 10 138 10 75 -1 142 2 147 5 19 13 46 20 40 10 -3 -5 4 -8 15 -7 11 1 20 6
20 12 0 6 3 7 8 0 9 -13 65 -13 74 0 4 5 45 10 92 10 47 1 89 4 92 8 4 4 13 2
21 -4 8 -7 13 -7 13 -2 0 6 14 9 31 7 22 -3 28 0 23 9 -5 8 -2 7 9 -2 14 -11
18 -11 22 0 4 11 31 14 113 13 59 0 112 2 117 5 15 8 34 10 105 14 36 1 70 5
75 9 6 3 22 5 38 3 15 -2 27 1 27 6 0 5 12 9 28 8 15 -1 47 2 72 6 25 5 65 9
90 10 25 1 52 5 60 8 8 4 24 5 34 3 11 -1 30 2 42 9 12 6 53 11 91 10 37 0 71
3 74 8 7 9 46 14 169 22 103 6 171 15 189 24 9 6 29 8 44 7 15 -2 27 2 27 8 0
6 5 4 10 -4 6 -9 10 -10 10 -3 0 6 8 12 18 12 38 1 52 5 52 13 0 4 3 7 8 6 18
-3 112 41 112 53 0 6 4 8 9 4 6 -3 15 3 21 14 6 12 20 20 33 19 40 -2 58 2 53
11 -3 4 5 6 17 4 14 -3 29 2 36 11 8 9 20 16 28 16 8 0 11 5 8 10 -3 6 1 10 9
10 9 0 16 6 16 13 0 7 3 8 8 2 8 -12 32 -13 50 -2 7 5 12 3 12 -5 0 -7 8 3 19
22 10 19 23 36 30 36 6 1 18 2 27 3 8 0 13 5 10 9 -2 4 -1 14 5 22 5 10 9 11
9 3 0 -7 7 -10 15 -7 8 4 15 12 15 19 0 8 10 15 23 17 12 2 21 9 19 17 -2 9 3
11 13 7 9 -3 24 3 34 13 11 11 22 17 25 14 3 -4 7 0 8 8 0 8 2 19 3 24 2 6 3
16 4 24 1 10 4 11 15 2 10 -9 16 -8 26 4 7 8 16 12 21 9 5 -3 9 2 9 10 0 9 5
16 11 16 5 0 8 4 4 9 -3 5 4 13 16 16 11 4 18 9 15 12 -2 3 19 26 47 51 56 49
95 102 75 102 -7 0 -3 6 8 14 14 11 21 11 26 3 8 -12 12 4 9 31 -1 6 3 12 10
12 6 0 9 7 5 15 -3 8 -2 15 3 15 9 0 25 57 22 79 -1 7 2 10 8 6 11 -6 15 6 12
32 -1 6 3 14 8 18 6 3 8 12 4 20 -3 8 0 15 7 15 9 0 9 4 -1 17 -12 15 -12 16
1 8 13 -8 13 -7 1 8 -11 14 -11 17 0 17 11 0 11 2 -1 10 -13 9 -13 10 0 10 13
0 13 1 0 10 -13 9 -13 10 0 10 12 0 13 2 1 9 -11 7 -11 9 0 14 12 5 12 7 0 15
-11 8 -11 10 0 15 11 4 11 6 1 6 -8 1 -10 6 -6 13 14 22 11 49 -6 61 -9 7 -16
20 -14 29 1 10 -2 20 -6 23 -5 3 -6 13 -3 22 5 12 2 15 -9 11 -10 -4 -19 4
-29 29 -7 19 -21 39 -31 44 -10 6 -15 16 -12 27 11 32 38 82 46 82 4 0 5 7 2
15 -4 8 -1 15 6 15 8 0 11 9 8 25 -3 13 0 26 5 28 14 4 19 74 6 82 -5 4 -9 3
-8 -2 3 -14 -13 -47 -33 -67 -11 -10 -17 -24 -14 -32 3 -8 1 -14 -5 -14 -6 0
-9 -7 -5 -15 3 -8 2 -15 -3 -15 -5 0 -11 -9 -14 -20 -3 -12 -14 -20 -26 -20
-17 0 -21 6 -21 36 0 19 3 33 8 31 4 -3 8 5 8 16 1 12 5 32 9 44 6 18 3 22
-13 20 -14 -1 -19 -7 -16 -21 5 -28 -14 -46 -47 -46 -27 0 -29 3 -24 28 3 15
8 47 11 72 3 25 10 50 16 57 6 8 6 19 -2 32 -14 26 -20 27 -15 1 2 -11 -1 -22
-6 -25 -5 -4 -7 -11 -4 -16 4 -5 -3 -9 -14 -9 -14 0 -21 6 -21 19 0 28 -17 35
-25 11 -5 -14 -15 -20 -37 -20 -19 0 -28 4 -25 13 2 6 0 23 -5 36 -6 16 -4 32
6 52 8 16 13 29 10 29 -10 0 -42 -39 -37 -44 4 -3 1 -6 -5 -6 -5 0 -20 -16
-33 -36 -16 -26 -27 -34 -41 -31 -14 4 -17 2 -9 -7 16 -19 -3 -37 -38 -34 -26
2 -31 6 -27 20 2 10 -1 24 -8 31 -13 12 -16 93 -4 112 3 6 -1 17 -10 25 -14
13 -15 12 -10 -2 4 -8 2 -20 -4 -26 -6 -6 -12 -21 -13 -34 -7 -69 -17 -88 -46
-88 -29 0 -29 0 -26 58 1 31 6 63 11 70 4 6 3 12 -3 12 -7 0 -7 9 -3 23 9 23
7 69 -2 94 -3 8 -2 11 4 8 5 -3 8 4 7 15 -1 11 -5 20 -10 20 -5 0 -4 7 3 15 9
11 10 19 1 28 -8 10 -7 17 1 25 7 7 8 12 2 12 -5 0 -10 29 -12 64 -2 62 -1 64
38 105 44 45 79 57 60 20 -19 -34 -3 -34 35 0 37 32 56 41 36 17 -9 -10 -9
-16 -1 -21 15 -9 37 11 67 62 13 24 29 43 35 43 5 0 7 4 4 9 -3 4 3 19 14 31
11 13 21 21 23 19 20 -35 26 -50 18 -44 -6 3 -11 -1 -11 -9 0 -8 5 -18 10 -21
6 -4 7 -12 3 -18 -10 -15 -10 -38 0 -54 5 -7 5 -17 2 -23 -3 -5 -1 -10 4 -10
6 0 11 6 12 13 1 15 6 44 13 72 8 32 36 27 43 -7 8 -40 20 -35 33 15 7 23 18
52 26 65 8 12 12 27 9 31 -3 5 1 11 7 13 8 3 13 24 13 55 0 28 3 49 6 47 4 -2
9 3 13 11 3 8 1 17 -4 20 -6 4 -10 15 -10 26 0 11 -4 17 -10 14 -5 -3 -10 1
-10 10 0 9 -4 14 -8 11 -5 -3 -14 3 -22 14 -7 10 -18 16 -25 14 -6 -3 -18 2
-25 11 -7 8 -21 15 -31 15 -11 0 -19 5 -19 11 0 5 -4 8 -9 5 -5 -3 -30 6 -57
19 -27 14 -56 25 -64 25 -8 0 -24 7 -34 15 -18 13 -18 15 -2 21 10 4 15 13 12
21 -3 8 -2 11 3 8 12 -7 42 35 35 47 -3 4 1 11 10 14 8 3 12 12 9 20 -3 9 0
14 7 12 7 -2 13 9 15 23 2 15 12 44 22 65 11 23 18 61 18 91 0 32 4 53 11 53
6 0 11 6 11 13 0 6 3 23 7 36 6 18 5 22 -5 15 -11 -6 -12 -5 -3 7 12 16 13
187 1 206 -4 6 -3 14 2 17 5 3 3 24 -6 47 -7 23 -15 62 -17 88 -3 44 -5 55
-27 108 -5 14 -5 33 1 48 7 18 6 24 -2 22 -7 -1 -12 3 -13 8 0 6 -5 17 -10 25
-5 8 -8 23 -7 33 2 9 -2 17 -7 17 -6 0 -11 11 -11 25 0 14 -5 25 -11 25 -5 0
-7 5 -4 10 4 6 -3 26 -14 45 -13 23 -16 35 -8 35 7 1 5 6 -5 14 -10 7 -18 18
-18 24 0 6 -9 27 -20 47 -11 19 -17 35 -13 35 3 0 -2 8 -11 19 -11 12 -15 28
-11 49 4 24 2 30 -8 26 -7 -2 -22 4 -32 16 -10 11 -15 20 -10 20 4 0 1 8 -6
17 -12 15 -12 16 1 8 8 -4 2 6 -13 23 -16 16 -29 32 -28 34 2 11 -13 48 -19
48 -5 0 -11 9 -15 20 -3 11 -21 41 -39 67 -18 27 -36 58 -40 70 -4 12 -13 24
-21 27 -8 3 -15 15 -15 27 0 12 -8 23 -19 26 -21 5 -35 29 -25 44 3 5 -2 12
-10 15 -9 3 -16 15 -16 26 0 10 -4 17 -8 14 -10 -6 -43 30 -35 38 3 3 -10 19
-28 35 -18 17 -30 31 -25 31 5 0 -5 14 -23 30 -17 17 -31 35 -31 41 0 15 -26
39 -34 32 -3 -4 -6 1 -6 10 0 8 -9 19 -20 22 -11 3 -20 10 -20 14 0 4 -10 18
-22 31 -13 14 -22 28 -20 32 1 5 -4 8 -12 8 -7 0 -26 16 -41 36 -15 19 -29 33
-32 30 -9 -8 -44 35 -37 45 3 5 -3 9 -14 9 -19 0 -59 36 -54 49 1 3 -2 7 -8 7
-5 1 -12 3 -15 4 -3 1 -11 3 -17 4 -7 1 -12 7 -11 13 2 7 -6 15 -17 18 -11 4
-20 11 -20 16 0 5 -6 9 -13 9 -7 0 -20 8 -28 18 -21 23 -59 48 -69 45 -5 -2
-25 12 -44 31 -20 18 -36 31 -36 28 0 -3 -9 3 -19 12 -11 10 -25 19 -33 20
-21 4 -88 47 -88 57 0 5 -9 9 -19 9 -10 0 -29 8 -41 18 -19 15 -21 22 -11 39
9 18 8 21 -7 19 -9 -2 -18 -8 -18 -14 -1 -7 -2 -14 -3 -17 0 -2 -21 7 -46 21
-25 14 -49 23 -54 20 -4 -3 -23 8 -41 24 -18 16 -37 27 -41 24 -5 -3 -9 -2 -9
3 0 4 -10 9 -23 9 -34 3 -50 8 -65 22 -8 7 -18 10 -23 6 -5 -3 -12 1 -15 9 -3
8 -13 14 -22 12 -9 -1 -23 2 -30 8 -7 5 -15 7 -18 4 -3 -3 -22 3 -41 14 -19
11 -31 14 -27 8 5 -8 3 -9 -7 -3 -15 9 -24 12 -54 16 -11 2 -23 7 -26 11 -3 4
-17 9 -30 11 -14 1 -29 5 -34 8 -19 12 -113 26 -183 27 -19 1 -31 5 -27 11 3
6 -1 7 -10 4 -8 -4 -22 -1 -30 6 -12 10 -15 10 -15 0 0 -8 -4 -9 -12 -3 -7 5
-55 10 -107 12 -52 1 -98 4 -103 7 -4 3 -8 -1 -8 -8 0 -10 -2 -11 -8 0 -5 8
-16 10 -27 6 -14 -6 -16 -4 -10 7 8 12 6 12 -8 0 -11 -9 -17 -10 -17 -2 0 8
-5 8 -19 -1 -15 -9 -23 -9 -35 1 -13 11 -16 11 -16 0 0 -11 -2 -11 -10 1 -7
12 -12 12 -22 2 -6 -6 -19 -12 -27 -12 -13 0 -13 2 -2 9 9 6 5 9 -14 9 -20 0
-24 -3 -14 -10z"/>
<path d="M5748 7843 c7 -3 16 -2 19 1 4 3 -2 6 -13 5 -11 0 -14 -3 -6 -6z"/>
<path d="M8395 5890 c-3 -5 -1 -10 4 -10 6 0 11 5 11 10 0 6 -2 10 -4 10 -3 0
-8 -4 -11 -10z"/>
<path d="M8502 5208 c2 -5 8 -9 13 -9 5 0 11 4 13 9 1 5 -4 9 -13 9 -9 0 -14
-4 -13 -9z"/>
</g>
</svg>
